<?xml version="1.0" encoding="UTF-8" standalone="no"?>
<!-- Generator: Adobe Illustrator 13.0.0, SVG Export Plug-In . SVG Version: 6.00 Build 14948)  -->

<svg
   xmlns:dc="http://purl.org/dc/elements/1.1/"
   xmlns:cc="http://creativecommons.org/ns#"
   xmlns:rdf="http://www.w3.org/1999/02/22-rdf-syntax-ns#"
   xmlns:svg="http://www.w3.org/2000/svg"
   xmlns="http://www.w3.org/2000/svg"
   xmlns:sodipodi="http://sodipodi.sourceforge.net/DTD/sodipodi-0.dtd"
   xmlns:inkscape="http://www.inkscape.org/namespaces/inkscape"
   version="1.1"
   id="Layer_1"
   x="0px"
   y="0px"
   width="1024px"
   height="768px"
   viewBox="0 0 1024 768"
   enable-background="new 0 0 1024 768"
   xml:space="preserve"
   inkscape:version="0.48.1 r9760"
   sodipodi:docname="b9_logo.svg"><metadata
   id="metadata3099"><rdf:RDF><cc:Work
       rdf:about=""><dc:format>image/svg+xml</dc:format><dc:type
         rdf:resource="http://purl.org/dc/dcmitype/StillImage" /><dc:title></dc:title></cc:Work></rdf:RDF></metadata><defs
   id="defs3097"><linearGradient
     id="linearGradient4204"><stop
       style="stop-color:#ffffff;stop-opacity:1;"
       offset="0"
       id="stop4206" /><stop
       style="stop-color:#000000;stop-opacity:1;"
       offset="1"
       id="stop4208" /></linearGradient><filter
     id="filter4486"
     inkscape:label="Evanescent"
     inkscape:menu="Blurs"
     inkscape:menu-tooltip="Blur the contents of objects, preserving the outline and adding progressive transparency at edges"
     color-interpolation-filters="sRGB"><feGaussianBlur
       id="feGaussianBlur4488"
       result="result6"
       stdDeviation="3"
       in="SourceGraphic" /><feColorMatrix
       id="feColorMatrix4490"
       values="1 0 0 0 0 0 1 0 0 0 0 0 1 0 0 0 0 0 1 0 "
       result="result7"
       in="SourceGraphic" /><feComposite
       id="feComposite4492"
       in2="result7"
       operator="in"
       in="result6"
       result="fbSourceGraphic" /><feColorMatrix
       result="fbSourceGraphicAlpha"
       in="fbSourceGraphic"
       values="0 0 0 -1 0 0 0 0 -1 0 0 0 0 -1 0 0 0 0 1 0"
       id="feColorMatrix3171" /><feGaussianBlur
       id="feGaussianBlur3173"
       result="result6"
       stdDeviation="3"
       in="fbSourceGraphic" /><feColorMatrix
       id="feColorMatrix3175"
       values="1 0 0 0 0 0 1 0 0 0 0 0 1 0 0 0 0 0 1 0 "
       result="result7"
       in="fbSourceGraphic" /><feComposite
       id="feComposite3177"
       in2="result7"
       operator="in"
       in="result6" /></filter><filter
     id="filter4494"
     inkscape:label="Evanescent"
     inkscape:menu="Blurs"
     inkscape:menu-tooltip="Blur the contents of objects, preserving the outline and adding progressive transparency at edges"
     color-interpolation-filters="sRGB"><feGaussianBlur
       id="feGaussianBlur4496"
       result="result6"
       stdDeviation="3"
       in="SourceGraphic" /><feColorMatrix
       id="feColorMatrix4498"
       values="1 0 0 0 0 0 1 0 0 0 0 0 1 0 0 0 0 0 1 0 "
       result="result7"
       in="SourceGraphic" /><feComposite
       id="feComposite4500"
       in2="result7"
       operator="in"
       in="result6" /></filter><filter
     id="filter4846"
     inkscape:label="Button"
     x="0"
     y="0"
     width="1"
     height="1"
     inkscape:menu="Bevels"
     inkscape:menu-tooltip="Soft bevel, slightly depressed middle"
     color-interpolation-filters="sRGB"><feGaussianBlur
       id="feGaussianBlur4848"
       stdDeviation="2.3"
       in="SourceAlpha"
       result="result0" /><feMorphology
       id="feMorphology4850"
       in="SourceAlpha"
       radius="6.6"
       result="result1" /><feGaussianBlur
       id="feGaussianBlur4852"
       stdDeviation="8.9"
       in="result1" /><feColorMatrix
       id="feColorMatrix4854"
       values="1 0 0 0 0 0 1 0 0 0 0 0 1 0 0 0 0 0 0.3 0"
       result="result91" /><feComposite
       id="feComposite4856"
       in2="result91"
       in="result0"
       operator="out"
       result="result2" /><feGaussianBlur
       id="feGaussianBlur4858"
       stdDeviation="1.7"
       result="result4" /><feDiffuseLighting
       id="feDiffuseLighting4860"
       surfaceScale="10"
       result="result92"><feDistantLight
         id="feDistantLight4862"
         azimuth="225"
         elevation="45" /></feDiffuseLighting><feBlend
       id="feBlend4864"
       in2="SourceGraphic"
       mode="multiply"
       result="result93" /><feComposite
       id="feComposite4866"
       in2="SourceAlpha"
       operator="in"
       result="result3" /><feSpecularLighting
       id="feSpecularLighting4868"
       in="result4"
       surfaceScale="5"
       specularExponent="17.9"
       result="result94"><feDistantLight
         id="feDistantLight4870"
         azimuth="225"
         elevation="45" /></feSpecularLighting><feComposite
       id="feComposite4872"
       in2="result3"
       operator="atop" /></filter><filter
     id="filter5134"
     inkscape:label="Evanescent"
     inkscape:menu="Blurs"
     inkscape:menu-tooltip="Blur the contents of objects, preserving the outline and adding progressive transparency at edges"
     color-interpolation-filters="sRGB"><feGaussianBlur
       id="feGaussianBlur5136"
       result="result6"
       stdDeviation="3"
       in="SourceGraphic" /><feColorMatrix
       id="feColorMatrix5138"
       values="1 0 0 0 0 0 1 0 0 0 0 0 1 0 0 0 0 0 1 0 "
       result="result7"
       in="SourceGraphic" /><feComposite
       id="feComposite5140"
       in2="result7"
       operator="in"
       in="result6" /></filter><clipPath
     clipPathUnits="userSpaceOnUse"
     id="clipPath3187"><rect
       y="30.869007"
       x="52.495266"
       height="256"
       width="238.82664"
       id="rect3189"
       style="fill:#ff0000;fill-opacity:1;stroke:none" /></clipPath></defs><sodipodi:namedview
   pagecolor="#000000"
   bordercolor="#666666"
   borderopacity="1"
   objecttolerance="10"
   gridtolerance="10"
   guidetolerance="10"
   inkscape:pageopacity="0"
   inkscape:pageshadow="2"
   inkscape:window-width="1440"
   inkscape:window-height="852"
   id="namedview3095"
   showgrid="false"
   inkscape:zoom="0.5"
   inkscape:cx="482.01788"
   inkscape:cy="396.42321"
   inkscape:window-x="0"
   inkscape:window-y="0"
   inkscape:window-maximized="0"
   inkscape:current-layer="Layer_1" />












<g
   id="g3179"
   clip-path="url(#clipPath3187)"
   transform="translate(69.260212,225.13099)"
   inkscape:export-filename="/Users/kitao/Dropbox/projects/flatninth/doc/logo/b9_logo_239x256.png"
   inkscape:export-xdpi="90"
   inkscape:export-ydpi="90"><rect
     transform="matrix(0.63628565,0,0,0.63628565,-309.85986,-163.51659)"
     style="fill:#ffffff;fill-opacity:1;stroke:none;filter:url(#filter4494)"
     id="rect4306"
     width="356.28616"
     height="383.27582"
     x="579.0144"
     y="315.03012"
     ry="35"
     rx="35" /><g
     style="filter:url(#filter4486)"
     transform="matrix(0.63628565,0,0,0.63628565,7.7850015,-174.31472)"
     id="g4308"><path
       inkscape:connector-curvature="0"
       id="path4310"
       d="m 185.25443,383.2105 c 1.57847,2.29494 43.03559,-13.34139 80.90757,0.4282 0,0 2.5832,1.293 8.175,-5.16359 5.5946,-6.4566 33.99859,-32.71119 39.59319,-24.9616 5.5946,7.7496 -0.431,36.15079 -8.606,62.83078 -8.1778,26.68279 10.3272,43.90039 -20.65999,74.45378 0,0 -3.4396,3.0114 -1.2902,9.03699 2.155,6.0256 9.037,35.71699 1.2902,57.66438 -7.7468,21.9502 -16.78379,35.28879 -16.78379,41.31719 0,6.0228 -4.7326,33.99579 -14.2006,53.79378 -9.468,19.79799 4.7326,17.21479 7.3158,25.38979 2.5832,8.1806 2.1522,15.92459 -14.6316,14.63439 -16.78379,-1.2902 -22.37839,-9.89619 -24.09959,-21.94739 -1.7212,-12.05119 7.7468,-12.05119 7.7468,-20.65719 0,-8.6088 -3.0114,-24.96159 -3.0114,-24.96159 0,0 -19.36699,9.8962 -18.505,15.92179 0.85921,6.0228 4.7298,26.68279 8.606,33.99579 3.8734,7.3186 10.3272,19.7952 0.431,21.08819 -9.89899,1.2902 -38.73398,7.7468 -35.28879,-15.06259 0,0 0.8592,-4.7326 -1.72399,-6.8876 -2.5804,-2.1522 -22.3756,-7.74679 -22.3756,-29.26319 0,-21.51639 -6.45659,-0.4282 -6.45659,4.3044 0,4.7326 -5.1664,3.4396 -0.431,13.7724 4.73259,10.32439 9.89899,6.45659 6.88759,14.20059 -3.0114,7.744 -31.41539,6.4566 -31.84639,2.5804 -0.431,-3.8706 2.1522,-8.606 2.1522,-15.06259 0,-6.4566 -7.313,-81.76677 -3.8734,-101.99297 3.4396,-20.22619 12.0512,-36.15078 17.6458,-43.46378 5.5946,-7.3158 7.31579,-12.9104 1.293,-17.6486 -6.0284,-4.7298 1.7184,-9.89339 7.74399,-3.87339 6.0256,6.02559 7.3158,12.05119 5.5974,17.21479 0,0 9.4652,-7.7468 11.1892,-13.77239 1.7212,-6.0256 2.5832,-11.6202 -1.724,-18.0768 -4.3016,-6.45659 -18.5022,-18.50219 -12.9076,-49.05558 0,0 1.2902,-9.0398 -2.155,-16.7866 -3.4396,-7.74679 -24.38505,-63.24218 -7.31579,-60.67857 17.21199,2.58879 41.31158,26.68838 41.31158,26.68838 z" /><g
       transform="matrix(0.79475676,0,0,0.79475676,4.8910748,153.40346)"
       id="g4312"
       style="font-size:40px;font-style:italic;font-variant:normal;font-weight:bold;font-stretch:normal;line-height:125%;letter-spacing:0px;word-spacing:0px;fill:#000000;fill-opacity:1;stroke:none;font-family:Zapfino;-inkscape-font-specification:Zapfino Bold Italic"><path
         inkscape:connector-curvature="0"
         id="path4314"
         d="m 376.65625,534.15625 c -5.19268,1.29394 -13.33867,-3.22741 -16.46875,2.9375 -0.0968,36.33661 0.27578,72.84854 -0.28125,109.25 20.20693,0.26104 43.9904,0.91712 59.03125,-14.875 15.97637,-16.50696 12.28792,-48.80333 -9.6875,-58.375 -9.29564,-4.6058 -19.96828,-6.24997 -30.375,-6.46875 0.0661,-10.98955 0.15839,-21.97905 0.1875,-32.96875 -0.80208,0.16667 -1.60417,0.33333 -2.40625,0.5 z M 379.375,583.875 c 11.53967,0.1011 26.52979,3.95855 29.59375,16.8125 3.08282,11.78203 -5.04472,25.09686 -17.25,26.9375 -4.18854,1.18693 -8.44999,1.56923 -12.8125,1.71875 -0.0948,-15.15599 -0.19945,-30.31267 -0.0625,-45.46875 l 0.53125,0 z"
         style="font-size:144px;font-style:normal;font-family:Skia;-inkscape-font-specification:Skia Bold" /><path
         inkscape:connector-curvature="0"
         id="path4316"
         d="m 470.09375,564.25 c -21.61096,-0.13665 -40.43025,22.39103 -34.65625,43.71875 3.44695,15.55531 19.04616,24.84695 33.40625,28.15625 -8.55009,7.83398 -16.4375,16.40625 -24.9375,24.53125 6.47195,1.35656 9.12076,11.015 16.34375,9.4375 6.58995,-5.05435 11.39007,-12.29394 17.70409,-17.93648 12.07531,-13.14388 26.17408,-26.68277 30.26466,-44.65727 3.5265,-16.34147 -4.53239,-35.29609 -21,-40.71875 -5.44747,-2.01429 -11.32631,-2.75792 -17.125,-2.53125 z m 2.28125,16.84375 c 12.16359,-0.26705 19.78654,13.69894 16.5,24.625 -1.13422,5.65093 -3.96887,11.27228 -8.0625,15.1875 -11.263,-1.41368 -25.37011,-7.15427 -26.78125,-20 -1.42305,-10.49953 7.64446,-20.74643 18.34375,-19.8125 z"
         style="font-size:144px;font-style:normal;font-family:Skia;-inkscape-font-specification:Skia Bold" /></g></g></g><g
   transform="matrix(0.5,0,0,0.5,616.04211,368.56549)"
   clip-path="url(#clipPath3187)"
   id="g3191"
   inkscape:export-filename="/Users/kitao/Dropbox/projects/flatninth/doc/logo/b9_logo_119x128.png"
   inkscape:export-xdpi="90"
   inkscape:export-ydpi="90"><rect
     rx="35"
     ry="35"
     y="315.03012"
     x="579.0144"
     height="383.27582"
     width="356.28616"
     id="rect3193"
     style="fill:#ffffff;fill-opacity:1;stroke:none;filter:url(#filter4494)"
     transform="matrix(0.63628565,0,0,0.63628565,-309.85986,-163.51659)" /><g
     id="g3195"
     transform="matrix(0.63628565,0,0,0.63628565,7.7850015,-174.31472)"
     style="filter:url(#filter4486)"><path
       d="m 185.25443,383.2105 c 1.57847,2.29494 43.03559,-13.34139 80.90757,0.4282 0,0 2.5832,1.293 8.175,-5.16359 5.5946,-6.4566 33.99859,-32.71119 39.59319,-24.9616 5.5946,7.7496 -0.431,36.15079 -8.606,62.83078 -8.1778,26.68279 10.3272,43.90039 -20.65999,74.45378 0,0 -3.4396,3.0114 -1.2902,9.03699 2.155,6.0256 9.037,35.71699 1.2902,57.66438 -7.7468,21.9502 -16.78379,35.28879 -16.78379,41.31719 0,6.0228 -4.7326,33.99579 -14.2006,53.79378 -9.468,19.79799 4.7326,17.21479 7.3158,25.38979 2.5832,8.1806 2.1522,15.92459 -14.6316,14.63439 -16.78379,-1.2902 -22.37839,-9.89619 -24.09959,-21.94739 -1.7212,-12.05119 7.7468,-12.05119 7.7468,-20.65719 0,-8.6088 -3.0114,-24.96159 -3.0114,-24.96159 0,0 -19.36699,9.8962 -18.505,15.92179 0.85921,6.0228 4.7298,26.68279 8.606,33.99579 3.8734,7.3186 10.3272,19.7952 0.431,21.08819 -9.89899,1.2902 -38.73398,7.7468 -35.28879,-15.06259 0,0 0.8592,-4.7326 -1.72399,-6.8876 -2.5804,-2.1522 -22.3756,-7.74679 -22.3756,-29.26319 0,-21.51639 -6.45659,-0.4282 -6.45659,4.3044 0,4.7326 -5.1664,3.4396 -0.431,13.7724 4.73259,10.32439 9.89899,6.45659 6.88759,14.20059 -3.0114,7.744 -31.41539,6.4566 -31.84639,2.5804 -0.431,-3.8706 2.1522,-8.606 2.1522,-15.06259 0,-6.4566 -7.313,-81.76677 -3.8734,-101.99297 3.4396,-20.22619 12.0512,-36.15078 17.6458,-43.46378 5.5946,-7.3158 7.31579,-12.9104 1.293,-17.6486 -6.0284,-4.7298 1.7184,-9.89339 7.74399,-3.87339 6.0256,6.02559 7.3158,12.05119 5.5974,17.21479 0,0 9.4652,-7.7468 11.1892,-13.77239 1.7212,-6.0256 2.5832,-11.6202 -1.724,-18.0768 -4.3016,-6.45659 -18.5022,-18.50219 -12.9076,-49.05558 0,0 1.2902,-9.0398 -2.155,-16.7866 -3.4396,-7.74679 -24.38505,-63.24218 -7.31579,-60.67857 17.21199,2.58879 41.31158,26.68838 41.31158,26.68838 z"
       id="path3197"
       inkscape:connector-curvature="0" /><g
       style="font-size:40px;font-style:italic;font-variant:normal;font-weight:bold;font-stretch:normal;line-height:125%;letter-spacing:0px;word-spacing:0px;fill:#000000;fill-opacity:1;stroke:none;font-family:Zapfino;-inkscape-font-specification:Zapfino Bold Italic"
       id="g3199"
       transform="matrix(0.79475676,0,0,0.79475676,4.8910748,153.40346)"><path
         style="font-size:144px;font-style:normal;font-family:Skia;-inkscape-font-specification:Skia Bold"
         d="m 376.65625,534.15625 c -5.19268,1.29394 -13.33867,-3.22741 -16.46875,2.9375 -0.0968,36.33661 0.27578,72.84854 -0.28125,109.25 20.20693,0.26104 43.9904,0.91712 59.03125,-14.875 15.97637,-16.50696 12.28792,-48.80333 -9.6875,-58.375 -9.29564,-4.6058 -19.96828,-6.24997 -30.375,-6.46875 0.0661,-10.98955 0.15839,-21.97905 0.1875,-32.96875 -0.80208,0.16667 -1.60417,0.33333 -2.40625,0.5 z M 379.375,583.875 c 11.53967,0.1011 26.52979,3.95855 29.59375,16.8125 3.08282,11.78203 -5.04472,25.09686 -17.25,26.9375 -4.18854,1.18693 -8.44999,1.56923 -12.8125,1.71875 -0.0948,-15.15599 -0.19945,-30.31267 -0.0625,-45.46875 l 0.53125,0 z"
         id="path3201"
         inkscape:connector-curvature="0" /><path
         style="font-size:144px;font-style:normal;font-family:Skia;-inkscape-font-specification:Skia Bold"
         d="m 470.09375,564.25 c -21.61096,-0.13665 -40.43025,22.39103 -34.65625,43.71875 3.44695,15.55531 19.04616,24.84695 33.40625,28.15625 -8.55009,7.83398 -16.4375,16.40625 -24.9375,24.53125 6.47195,1.35656 9.12076,11.015 16.34375,9.4375 6.58995,-5.05435 11.39007,-12.29394 17.70409,-17.93648 12.07531,-13.14388 26.17408,-26.68277 30.26466,-44.65727 3.5265,-16.34147 -4.53239,-35.29609 -21,-40.71875 -5.44747,-2.01429 -11.32631,-2.75792 -17.125,-2.53125 z m 2.28125,16.84375 c 12.16359,-0.26705 19.78654,13.69894 16.5,24.625 -1.13422,5.65093 -3.96887,11.27228 -8.0625,15.1875 -11.263,-1.41368 -25.37011,-7.15427 -26.78125,-20 -1.42305,-10.49953 7.64446,-20.74643 18.34375,-19.8125 z"
         id="path3203"
         inkscape:connector-curvature="0" /></g></g></g><g
   transform="matrix(0.75,0,0,0.75,372.50451,296.84824)"
   clip-path="url(#clipPath3187)"
   id="g3205"
   inkscape:export-filename="/Users/kitao/Dropbox/projects/flatninth/doc/logo/b9_logo_179x192.png"
   inkscape:export-xdpi="90"
   inkscape:export-ydpi="90"><rect
     rx="35"
     ry="35"
     y="315.03012"
     x="579.0144"
     height="383.27582"
     width="356.28616"
     id="rect3207"
     style="fill:#ffffff;fill-opacity:1;stroke:none;filter:url(#filter4494)"
     transform="matrix(0.63628565,0,0,0.63628565,-309.85986,-163.51659)" /><g
     id="g3209"
     transform="matrix(0.63628565,0,0,0.63628565,7.7850015,-174.31472)"
     style="filter:url(#filter4486)"><path
       d="m 185.25443,383.2105 c 1.57847,2.29494 43.03559,-13.34139 80.90757,0.4282 0,0 2.5832,1.293 8.175,-5.16359 5.5946,-6.4566 33.99859,-32.71119 39.59319,-24.9616 5.5946,7.7496 -0.431,36.15079 -8.606,62.83078 -8.1778,26.68279 10.3272,43.90039 -20.65999,74.45378 0,0 -3.4396,3.0114 -1.2902,9.03699 2.155,6.0256 9.037,35.71699 1.2902,57.66438 -7.7468,21.9502 -16.78379,35.28879 -16.78379,41.31719 0,6.0228 -4.7326,33.99579 -14.2006,53.79378 -9.468,19.79799 4.7326,17.21479 7.3158,25.38979 2.5832,8.1806 2.1522,15.92459 -14.6316,14.63439 -16.78379,-1.2902 -22.37839,-9.89619 -24.09959,-21.94739 -1.7212,-12.05119 7.7468,-12.05119 7.7468,-20.65719 0,-8.6088 -3.0114,-24.96159 -3.0114,-24.96159 0,0 -19.36699,9.8962 -18.505,15.92179 0.85921,6.0228 4.7298,26.68279 8.606,33.99579 3.8734,7.3186 10.3272,19.7952 0.431,21.08819 -9.89899,1.2902 -38.73398,7.7468 -35.28879,-15.06259 0,0 0.8592,-4.7326 -1.72399,-6.8876 -2.5804,-2.1522 -22.3756,-7.74679 -22.3756,-29.26319 0,-21.51639 -6.45659,-0.4282 -6.45659,4.3044 0,4.7326 -5.1664,3.4396 -0.431,13.7724 4.73259,10.32439 9.89899,6.45659 6.88759,14.20059 -3.0114,7.744 -31.41539,6.4566 -31.84639,2.5804 -0.431,-3.8706 2.1522,-8.606 2.1522,-15.06259 0,-6.4566 -7.313,-81.76677 -3.8734,-101.99297 3.4396,-20.22619 12.0512,-36.15078 17.6458,-43.46378 5.5946,-7.3158 7.31579,-12.9104 1.293,-17.6486 -6.0284,-4.7298 1.7184,-9.89339 7.74399,-3.87339 6.0256,6.02559 7.3158,12.05119 5.5974,17.21479 0,0 9.4652,-7.7468 11.1892,-13.77239 1.7212,-6.0256 2.5832,-11.6202 -1.724,-18.0768 -4.3016,-6.45659 -18.5022,-18.50219 -12.9076,-49.05558 0,0 1.2902,-9.0398 -2.155,-16.7866 -3.4396,-7.74679 -24.38505,-63.24218 -7.31579,-60.67857 17.21199,2.58879 41.31158,26.68838 41.31158,26.68838 z"
       id="path3211"
       inkscape:connector-curvature="0" /><g
       style="font-size:40px;font-style:italic;font-variant:normal;font-weight:bold;font-stretch:normal;line-height:125%;letter-spacing:0px;word-spacing:0px;fill:#000000;fill-opacity:1;stroke:none;font-family:Zapfino;-inkscape-font-specification:Zapfino Bold Italic"
       id="g3213"
       transform="matrix(0.79475676,0,0,0.79475676,4.8910748,153.40346)"><path
         style="font-size:144px;font-style:normal;font-family:Skia;-inkscape-font-specification:Skia Bold"
         d="m 376.65625,534.15625 c -5.19268,1.29394 -13.33867,-3.22741 -16.46875,2.9375 -0.0968,36.33661 0.27578,72.84854 -0.28125,109.25 20.20693,0.26104 43.9904,0.91712 59.03125,-14.875 15.97637,-16.50696 12.28792,-48.80333 -9.6875,-58.375 -9.29564,-4.6058 -19.96828,-6.24997 -30.375,-6.46875 0.0661,-10.98955 0.15839,-21.97905 0.1875,-32.96875 -0.80208,0.16667 -1.60417,0.33333 -2.40625,0.5 z M 379.375,583.875 c 11.53967,0.1011 26.52979,3.95855 29.59375,16.8125 3.08282,11.78203 -5.04472,25.09686 -17.25,26.9375 -4.18854,1.18693 -8.44999,1.56923 -12.8125,1.71875 -0.0948,-15.15599 -0.19945,-30.31267 -0.0625,-45.46875 l 0.53125,0 z"
         id="path3215"
         inkscape:connector-curvature="0" /><path
         style="font-size:144px;font-style:normal;font-family:Skia;-inkscape-font-specification:Skia Bold"
         d="m 470.09375,564.25 c -21.61096,-0.13665 -40.43025,22.39103 -34.65625,43.71875 3.44695,15.55531 19.04616,24.84695 33.40625,28.15625 -8.55009,7.83398 -16.4375,16.40625 -24.9375,24.53125 6.47195,1.35656 9.12076,11.015 16.34375,9.4375 6.58995,-5.05435 11.39007,-12.29394 17.70409,-17.93648 12.07531,-13.14388 26.17408,-26.68277 30.26466,-44.65727 3.5265,-16.34147 -4.53239,-35.29609 -21,-40.71875 -5.44747,-2.01429 -11.32631,-2.75792 -17.125,-2.53125 z m 2.28125,16.84375 c 12.16359,-0.26705 19.78654,13.69894 16.5,24.625 -1.13422,5.65093 -3.96887,11.27228 -8.0625,15.1875 -11.263,-1.41368 -25.37011,-7.15427 -26.78125,-20 -1.42305,-10.49953 7.64446,-20.74643 18.34375,-19.8125 z"
         id="path3217"
         inkscape:connector-curvature="0" /></g></g></g><g
   id="g3219"
   clip-path="url(#clipPath3187)"
   transform="matrix(0.37571788,0,0,0.37571788,793.03158,404.30589)"
   inkscape:export-filename="/Users/kitao/Dropbox/projects/flatninth/doc/logo/b9_logo_89x96.png"
   inkscape:export-xdpi="90"
   inkscape:export-ydpi="90"><rect
     transform="matrix(0.63628565,0,0,0.63628565,-309.85986,-163.51659)"
     style="fill:#ffffff;fill-opacity:1;stroke:none;filter:url(#filter4494)"
     id="rect3221"
     width="356.28616"
     height="383.27582"
     x="579.0144"
     y="315.03012"
     ry="35"
     rx="35" /><g
     style="filter:url(#filter4486)"
     transform="matrix(0.63628565,0,0,0.63628565,7.7850015,-174.31472)"
     id="g3223"><path
       inkscape:connector-curvature="0"
       id="path3225"
       d="m 185.25443,383.2105 c 1.57847,2.29494 43.03559,-13.34139 80.90757,0.4282 0,0 2.5832,1.293 8.175,-5.16359 5.5946,-6.4566 33.99859,-32.71119 39.59319,-24.9616 5.5946,7.7496 -0.431,36.15079 -8.606,62.83078 -8.1778,26.68279 10.3272,43.90039 -20.65999,74.45378 0,0 -3.4396,3.0114 -1.2902,9.03699 2.155,6.0256 9.037,35.71699 1.2902,57.66438 -7.7468,21.9502 -16.78379,35.28879 -16.78379,41.31719 0,6.0228 -4.7326,33.99579 -14.2006,53.79378 -9.468,19.79799 4.7326,17.21479 7.3158,25.38979 2.5832,8.1806 2.1522,15.92459 -14.6316,14.63439 -16.78379,-1.2902 -22.37839,-9.89619 -24.09959,-21.94739 -1.7212,-12.05119 7.7468,-12.05119 7.7468,-20.65719 0,-8.6088 -3.0114,-24.96159 -3.0114,-24.96159 0,0 -19.36699,9.8962 -18.505,15.92179 0.85921,6.0228 4.7298,26.68279 8.606,33.99579 3.8734,7.3186 10.3272,19.7952 0.431,21.08819 -9.89899,1.2902 -38.73398,7.7468 -35.28879,-15.06259 0,0 0.8592,-4.7326 -1.72399,-6.8876 -2.5804,-2.1522 -22.3756,-7.74679 -22.3756,-29.26319 0,-21.51639 -6.45659,-0.4282 -6.45659,4.3044 0,4.7326 -5.1664,3.4396 -0.431,13.7724 4.73259,10.32439 9.89899,6.45659 6.88759,14.20059 -3.0114,7.744 -31.41539,6.4566 -31.84639,2.5804 -0.431,-3.8706 2.1522,-8.606 2.1522,-15.06259 0,-6.4566 -7.313,-81.76677 -3.8734,-101.99297 3.4396,-20.22619 12.0512,-36.15078 17.6458,-43.46378 5.5946,-7.3158 7.31579,-12.9104 1.293,-17.6486 -6.0284,-4.7298 1.7184,-9.89339 7.74399,-3.87339 6.0256,6.02559 7.3158,12.05119 5.5974,17.21479 0,0 9.4652,-7.7468 11.1892,-13.77239 1.7212,-6.0256 2.5832,-11.6202 -1.724,-18.0768 -4.3016,-6.45659 -18.5022,-18.50219 -12.9076,-49.05558 0,0 1.2902,-9.0398 -2.155,-16.7866 -3.4396,-7.74679 -24.38505,-63.24218 -7.31579,-60.67857 17.21199,2.58879 41.31158,26.68838 41.31158,26.68838 z" /><g
       transform="matrix(0.79475676,0,0,0.79475676,4.8910748,153.40346)"
       id="g3227"
       style="font-size:40px;font-style:italic;font-variant:normal;font-weight:bold;font-stretch:normal;line-height:125%;letter-spacing:0px;word-spacing:0px;fill:#000000;fill-opacity:1;stroke:none;font-family:Zapfino;-inkscape-font-specification:Zapfino Bold Italic"><path
         inkscape:connector-curvature="0"
         id="path3229"
         d="m 376.65625,534.15625 c -5.19268,1.29394 -13.33867,-3.22741 -16.46875,2.9375 -0.0968,36.33661 0.27578,72.84854 -0.28125,109.25 20.20693,0.26104 43.9904,0.91712 59.03125,-14.875 15.97637,-16.50696 12.28792,-48.80333 -9.6875,-58.375 -9.29564,-4.6058 -19.96828,-6.24997 -30.375,-6.46875 0.0661,-10.98955 0.15839,-21.97905 0.1875,-32.96875 -0.80208,0.16667 -1.60417,0.33333 -2.40625,0.5 z M 379.375,583.875 c 11.53967,0.1011 26.52979,3.95855 29.59375,16.8125 3.08282,11.78203 -5.04472,25.09686 -17.25,26.9375 -4.18854,1.18693 -8.44999,1.56923 -12.8125,1.71875 -0.0948,-15.15599 -0.19945,-30.31267 -0.0625,-45.46875 l 0.53125,0 z"
         style="font-size:144px;font-style:normal;font-family:Skia;-inkscape-font-specification:Skia Bold" /><path
         inkscape:connector-curvature="0"
         id="path3231"
         d="m 470.09375,564.25 c -21.61096,-0.13665 -40.43025,22.39103 -34.65625,43.71875 3.44695,15.55531 19.04616,24.84695 33.40625,28.15625 -8.55009,7.83398 -16.4375,16.40625 -24.9375,24.53125 6.47195,1.35656 9.12076,11.015 16.34375,9.4375 6.58995,-5.05435 11.39007,-12.29394 17.70409,-17.93648 12.07531,-13.14388 26.17408,-26.68277 30.26466,-44.65727 3.5265,-16.34147 -4.53239,-35.29609 -21,-40.71875 -5.44747,-2.01429 -11.32631,-2.75792 -17.125,-2.53125 z m 2.28125,16.84375 c 12.16359,-0.26705 19.78654,13.69894 16.5,24.625 -1.13422,5.65093 -3.96887,11.27228 -8.0625,15.1875 -11.263,-1.41368 -25.37011,-7.15427 -26.78125,-20 -1.42305,-10.49953 7.64446,-20.74643 18.34375,-19.8125 z"
         style="font-size:144px;font-style:normal;font-family:Skia;-inkscape-font-specification:Skia Bold" /></g></g></g></svg>