<?xml version="1.0" encoding="UTF-8" standalone="no"?>
<!-- Created with Inkscape (http://www.inkscape.org/) -->

<svg
   xmlns:osb="http://www.openswatchbook.org/uri/2009/osb"
   xmlns:dc="http://purl.org/dc/elements/1.1/"
   xmlns:cc="http://creativecommons.org/ns#"
   xmlns:rdf="http://www.w3.org/1999/02/22-rdf-syntax-ns#"
   xmlns:svg="http://www.w3.org/2000/svg"
   xmlns="http://www.w3.org/2000/svg"
   xmlns:xlink="http://www.w3.org/1999/xlink"
   xmlns:sodipodi="http://sodipodi.sourceforge.net/DTD/sodipodi-0.dtd"
   xmlns:inkscape="http://www.inkscape.org/namespaces/inkscape"
   width="297mm"
   height="210mm"
   id="svg5576"
   version="1.1"
   inkscape:version="0.48.1 r9760"
   sodipodi:docname="flatninth_logo.svg">
  <defs
     id="defs5578">
    <linearGradient
       id="linearGradient6890">
      <stop
         style="stop-color:#0f1dff;stop-opacity:1;"
         offset="0"
         id="stop6892" />
      <stop
         style="stop-color:#a21111;stop-opacity:0;"
         offset="1"
         id="stop6894" />
    </linearGradient>
    <linearGradient
       id="linearGradient6878"
       osb:paint="gradient">
      <stop
         style="stop-color:#ffffff;stop-opacity:1;"
         offset="0"
         id="stop6880" />
      <stop
         style="stop-color:#ffffff;stop-opacity:0;"
         offset="1"
         id="stop6882" />
    </linearGradient>
  </defs>
  <sodipodi:namedview
     inkscape:document-units="px"
     pagecolor="#ffffff"
     bordercolor="#666666"
     borderopacity="1.0"
     inkscape:pageopacity="0"
     inkscape:pageshadow="2"
     inkscape:zoom="0.66"
     inkscape:cx="435.78536"
     inkscape:cy="347.60612"
     inkscape:current-layer="layer1"
     id="namedview5580"
     showgrid="false"
     inkscape:window-width="1366"
     inkscape:window-height="720"
     inkscape:window-x="0"
     inkscape:window-y="0"
     inkscape:window-maximized="1"
     units="mm" />
  <metadata
     id="metadata5582">
    <rdf:RDF>
      <cc:Work
         rdf:about="">
        <dc:format>image/svg+xml</dc:format>
        <dc:type
           rdf:resource="http://purl.org/dc/dcmitype/StillImage" />
        <dc:title />
      </cc:Work>
    </rdf:RDF>
  </metadata>
  <g
     inkscape:label="Layer 1"
     inkscape:groupmode="layer"
     id="layer1">
    <g
       id="g7116"
       transform="matrix(1.1004094,0,0,1.1004094,-53.559939,-286.13575)"
       inkscape:export-xdpi="90"
       inkscape:export-ydpi="90"
       style="fill:#000000">
      <text
         sodipodi:linespacing="125%"
         id="text5585"
         y="442.90295"
         x="47.159832"
         style="font-size:160px;font-style:normal;font-variant:normal;font-weight:normal;font-stretch:normal;line-height:125%;letter-spacing:0px;word-spacing:0px;fill:#000000;fill-opacity:1;stroke:none;font-family:Optima;-inkscape-font-specification:Optima"
         xml:space="preserve"><tspan
           y="442.90295"
           x="47.159832"
           id="tspan5587"
           sodipodi:role="line">FLATNINTH</tspan></text>
      <g
         id="g7109"
         style="fill:#000000">
        <text
           sodipodi:linespacing="125%"
           id="text6969"
           y="377.55469"
           x="950.04761"
           style="font-size:90px;font-style:normal;font-weight:normal;line-height:125%;letter-spacing:0px;word-spacing:0px;fill:#000000;fill-opacity:1;stroke:none;font-family:Sans"
           xml:space="preserve"><tspan
             style="font-size:85px;font-style:normal;font-variant:normal;font-weight:normal;font-stretch:normal;fill:#000000;font-family:Optima;-inkscape-font-specification:Optima"
             y="377.55469"
             x="950.04761"
             id="tspan6971"
             sodipodi:role="line">9</tspan><tspan
             id="tspan6973"
             y="483.80469"
             x="950.04761"
             sodipodi:role="line" /></text>
        <g
           style="font-size:40px;font-style:normal;font-weight:normal;line-height:125%;letter-spacing:0px;word-spacing:0px;fill:#000000;fill-opacity:1;stroke:none;font-family:Sans"
           id="text6939"
           transform="translate(77.952738,555.65448)">
          <path
             d="m 842.5274,-218.63347 c 4.69074,-6.58849 7.9365,-7.88276 13.73731,-7.88281 3.72392,5e-5 6.74964,1.18169 9.07715,3.54492 2.36324,2.32752 3.54488,4.88774 3.54492,7.68066 -4e-5,6.33793 -2.48865,12.31774 -7.46582,17.93946 -4.94144,5.58595 -13.19501,12.37143 -24.76074,20.35644 l 0,-19.96704 0,-19.96704 -0.0854,-21.96704 -0.35433,-17.96704 1.63217,0.26556 1.81032,0.11286 1.70852,-0.11286 1.58128,-0.26556 -0.5315,17.11474 0.10614,21.11475 m 0,32.92481 c 13.49932,-9.81118 18.24899,-16.94203 18.24903,-25.39258 -4e-5,-2.1484 -0.66247,-3.95667 -1.98731,-5.42481 -1.3249,-1.46805 -3.00784,-2.2021 -5.04882,-2.20215 -2.32751,5e-5 -4.42223,0.59087 -6.28418,1.77247 -1.862,1.14587 -2.17157,1.2764 -4.92872,4.3916 l 0,26.85547"
             style="font-size:110px;fill:#000000"
             id="path6961"
             inkscape:connector-curvature="0"
             sodipodi:nodetypes="ccccccccccccccccccccccc" />
        </g>
      </g>
    </g>
    <use
       x="0"
       y="0"
       xlink:href="#g7116"
       id="use3082"
       transform="matrix(0.49999999,0,0,0.49999999,263.09055,401.10068)"
       width="1052.3622"
       height="744.09448" />
    <use
       x="0"
       y="0"
       xlink:href="#g7116"
       id="use3084"
       transform="matrix(0.74999998,0,0,0.74999998,131.54528,220.70317)"
       width="1052.3622"
       height="744.09448" />
    <use
       x="0"
       y="0"
       xlink:href="#g7116"
       id="use3086"
       transform="matrix(0.24999999,0,0,0.24999999,394.63582,650.46728)"
       width="1052.3622"
       height="744.09448" />
    <use
       x="0"
       y="0"
       xlink:href="#g7116"
       id="use3088"
       transform="matrix(0.37499999,0,0,0.37499999,328.86319,535.86039)"
       width="1052.3622"
       height="744.09448" />
  </g>
</svg>
